<svg width="100" height="100" viewBox="0 0 100 100" fill="none" xmlns="http://www.w3.org/2000/svg">
<path d="M68.5 9.25C68.5 7.5924 69.1585 6.00269 70.3306 4.83058C71.5027 3.65848 73.0924 3 74.75 3H87.25C88.9076 3 90.4973 3.65848 91.6694 4.83058C92.8415 6.00269 93.5 7.5924 93.5 9.25V28C93.5 29.6576 92.8415 31.2473 91.6694 32.4194C90.4973 33.5915 88.9076 34.25 87.25 34.25H84.125V93.625C84.125 94.4538 83.7958 95.2487 83.2097 95.8347C82.6237 96.4208 81.8288 96.75 81 96.75C80.1712 96.75 79.3763 96.4208 78.7903 95.8347C78.2042 95.2487 77.875 94.4538 77.875 93.625V34.25H74.75C73.0924 34.25 71.5027 33.5915 70.3306 32.4194C69.1585 31.2473 68.5 29.6576 68.5 28V9.25ZM63.8125 9.25H29.1438C26.3002 9.25049 23.5418 10.2205 21.3238 11.9999C19.1058 13.7793 17.5608 16.2617 16.9437 19.0375L14.95 28H12.25C11.4212 28 10.6263 28.3292 10.0403 28.9153C9.45424 29.5013 9.125 30.2962 9.125 31.125C9.125 31.9538 9.45424 32.7487 10.0403 33.3347C10.6263 33.9208 11.4212 34.25 12.25 34.25H13.5625L12.5313 38.8906C10.5551 39.9646 8.90528 41.5519 7.7558 43.4851C6.60632 45.4183 5.99973 47.6259 6 49.875V81.125C6 83.6114 6.98772 85.996 8.74587 87.7541C10.504 89.5123 12.8886 90.5 15.375 90.5H18.5C20.9864 90.5 23.371 89.5123 25.1291 87.7541C26.8873 85.996 27.875 83.6114 27.875 81.125V78H65.375V81.125C65.3743 83.341 66.1586 85.4856 67.5888 87.1784C69.0189 88.8711 71.0025 90.0025 73.1875 90.3719V83.8312C72.7124 83.557 72.318 83.1625 72.0437 82.6875C71.7694 82.2124 71.625 81.6735 71.625 81.125V78H73.1875V71.75H12.25V49.875C12.25 48.2174 12.9085 46.6277 14.0806 45.4556C15.2527 44.2835 16.8424 43.625 18.5 43.625H73.1875V38.8281C71.7456 38.6216 70.3598 38.1274 69.1125 37.375H19.2687L23.0438 20.3937C23.3523 19.0059 24.1248 17.7646 25.2338 16.8749C26.3428 15.9852 27.722 15.5002 29.1438 15.5H63.8125V9.25ZM12.25 81.125V78H21.625V81.125C21.625 81.9538 21.2958 82.7487 20.7097 83.3347C20.1237 83.9208 19.3288 84.25 18.5 84.25H15.375C14.5462 84.25 13.7513 83.9208 13.1653 83.3347C12.5792 82.7487 12.25 81.9538 12.25 81.125ZM35.6875 62.375C35.6875 61.5462 36.0167 60.7513 36.6028 60.1653C37.1888 59.5792 37.9837 59.25 38.8125 59.25H54.4375C55.2663 59.25 56.0612 59.5792 56.6472 60.1653C57.2333 60.7513 57.5625 61.5462 57.5625 62.375C57.5625 63.2038 57.2333 63.9987 56.6472 64.5847C56.0612 65.1708 55.2663 65.5 54.4375 65.5H38.8125C37.9837 65.5 37.1888 65.1708 36.6028 64.5847C36.0167 63.9987 35.6875 63.2038 35.6875 62.375ZM26.3125 59.25C27.5557 59.25 28.748 58.7561 29.6271 57.8771C30.5061 56.998 31 55.8057 31 54.5625C31 53.3193 30.5061 52.127 29.6271 51.2479C28.748 50.3689 27.5557 49.875 26.3125 49.875C25.0693 49.875 23.877 50.3689 22.9979 51.2479C22.1189 52.127 21.625 53.3193 21.625 54.5625C21.625 55.8057 22.1189 56.998 22.9979 57.8771C23.877 58.7561 25.0693 59.25 26.3125 59.25ZM71.625 54.5625C71.625 55.8057 71.1311 56.998 70.2521 57.8771C69.373 58.7561 68.1807 59.25 66.9375 59.25C65.6943 59.25 64.502 58.7561 63.6229 57.8771C62.7439 56.998 62.25 55.8057 62.25 54.5625C62.25 53.3193 62.7439 52.127 63.6229 51.2479C64.502 50.3689 65.6943 49.875 66.9375 49.875C68.1807 49.875 69.373 50.3689 70.2521 51.2479C71.1311 52.127 71.625 53.3193 71.625 54.5625Z" fill="#9CA3AF"/>
</svg>
